<svg width="24" height="25" viewBox="0 0 24 25" fill="none" xmlns="http://www.w3.org/2000/svg">
<path fill-rule="evenodd" clip-rule="evenodd" d="M15.04 22.39L15.052 22.397C17.24 23.79 20.1019 23.4761 21.936 21.642L22.71 20.868C23.4298 20.1473 23.4298 18.9797 22.71 18.259L19.449 15C18.7283 14.2802 17.5607 14.2802 16.84 15V15C16.4943 15.3461 16.0252 15.5406 15.536 15.5406C15.0468 15.5406 14.5777 15.3461 14.232 15L9.014 9.78099C8.29418 9.06027 8.29418 7.89271 9.014 7.17199V7.17199C9.36012 6.8263 9.5546 6.35718 9.5546 5.86799C9.5546 5.37881 9.36012 4.90969 9.014 4.56399L5.754 1.29999C5.03328 0.580178 3.86572 0.580178 3.145 1.29999L2.371 2.07399C0.537281 3.90814 0.223035 6.76961 1.615 8.95799L1.623 8.96999C5.19641 14.2598 9.75097 18.8154 15.04 22.39V22.39Z" stroke="#ffffff" stroke-width="1.5" stroke-linecap="round" stroke-linejoin="round"/>
</svg>
